<svg xmlns="http://www.w3.org/2000/svg" viewBox="0 0 372.277 415.3"><path d="M572.7,296.259c-8.25,0-11.625-5.846-7.5-12.991l22.582-39.109c4.125-7.145,10.875-7.144,15,0l22.577,39.108c4.124,7.145.749,12.991-7.5,12.991Z" transform="translate(-409.137 -238.801)" style="fill:#4fba6b"/><path d="M521.266,385.339c-8.25,0-11.625-5.846-7.5-12.991l27.194-47.1c4.125-7.145,14.25-12.99,22.5-12.99h54.393c8.25,0,11.625,5.845,7.5,12.99l-27.192,47.1c-4.125,7.145-14.25,12.991-22.5,12.991Z" transform="translate(-409.137 -238.801)" style="fill:#4fba6b"/><path d="M418.4,563.509c-8.25,0-11.624-5.846-7.5-12.99l29.509-51.1c4.125-7.145,10.876-18.836,15-25.981l29.5-51.107c4.124-7.145,10.874-7.145,15,0l31.813,55.107c4.125,7.145,14.249,12.991,22.5,12.991h175.74c8.25,0,18.375,5.845,22.5,12.99l27.193,47.1c4.125,7.145.75,12.991-7.5,12.991Z" transform="translate(-409.137 -238.801)" style="fill:#4fba6b"/><path d="M563.46,474.429c-8.25,0-18.375-5.846-22.5-12.991l-27.2-47.109c-4.125-7.144-.75-12.99,7.5-12.99H584.9c8.25,0,18.375-5.846,22.5-12.991l31.811-55.1c4.125-7.145,10.875-7.145,15,0l74.013,128.189c4.125,7.145.75,12.991-7.5,12.991Z" transform="translate(-409.137 -238.801)" style="fill:#4fba6b"/><path d="M553.542,604.75c-5.25,3.5-17.15,7.7-28.7,7.7-19.25,0-36.05-11.551-36.05-39.2V537.724H471.64V514.1h17.151V493.272l25.025-5.424V514.1h35.7v23.625h-35.7V571.85c0,11.375,5.426,17.325,15.4,17.325,5.6,0,12.251-1.926,20.126-4.726Z" transform="translate(-409.137 -238.801)" style="fill:#231f20"/><path d="M597.989,484.348c0,8.575-6.475,14.875-15.575,14.875-8.75,0-15.576-6.3-15.576-14.875s6.826-14.7,15.576-14.7C591.514,469.647,597.989,475.772,597.989,484.348ZM569.814,514.1h25.025V610.35H569.814Z" transform="translate(-409.137 -238.801)" style="fill:#231f20"/><path d="M715.24,562.224c0,29.576-18.9,50.226-43.926,50.226-13.65,0-23.625-5.95-30.45-15.051v56.7H615.839v-140h25.025v13.474A36.389,36.389,0,0,1,671.314,512C695.99,512,715.24,532.474,715.24,562.224Zm-25.375,0c0-15.75-10.325-26.425-24.326-26.425s-24.675,10.675-24.675,26.425c0,15.925,10.675,26.425,24.675,26.425C679.364,588.649,689.865,578.149,689.865,562.224Z" transform="translate(-409.137 -238.801)" style="fill:#231f20"/></svg>